<?xml version="1.0" encoding="UTF-8" standalone="no"?>
<!-- Created with Inkscape (http://www.inkscape.org/) -->

<svg
   version="1.1"
   id="svg1"
   width="961"
   height="528.60083"
   viewBox="0 0 961 528.60083"
   sodipodi:docname="Duck__icon.svg"
   xml:space="preserve"
   inkscape:version="1.3.2 (091e20e, 2023-11-25, custom)"
   xmlns:inkscape="http://www.inkscape.org/namespaces/inkscape"
   xmlns:sodipodi="http://sodipodi.sourceforge.net/DTD/sodipodi-0.dtd"
   xmlns="http://www.w3.org/2000/svg"
   xmlns:svg="http://www.w3.org/2000/svg"><defs
     id="defs1" /><sodipodi:namedview
     id="namedview1"
     pagecolor="#505050"
     bordercolor="#eeeeee"
     borderopacity="1"
     inkscape:showpageshadow="0"
     inkscape:pageopacity="0"
     inkscape:pagecheckerboard="0"
     inkscape:deskcolor="#505050"
     inkscape:zoom="0.54817331"
     inkscape:cx="384.91476"
     inkscape:cy="323.8027"
     inkscape:window-width="1366"
     inkscape:window-height="715"
     inkscape:window-x="1358"
     inkscape:window-y="-8"
     inkscape:window-maximized="1"
     inkscape:current-layer="g1" /><g
     inkscape:groupmode="layer"
     inkscape:label="Image"
     id="g1"
     transform="translate(-19.036597,-256.77927)"><path
       style="fill:#eec538;fill-opacity:1"
       d="M 483.5366,784.89349 C 294.7205,773.83098 178.45752,574.22512 261.90758,404.39017 c 86.51264,-176.06783 329.47194,-199.68138 447.57043,-43.5 136.04456,179.91447 -1.04603,437.17968 -225.94141,424.00332 z m 33.49921,-40.06242 c 17.91402,-1.2841 17.27609,-0.43133 10.47189,-13.99851 -15.86602,-31.63594 -39.38738,-93.85709 -43.90807,-116.15023 -7.09147,-34.9705 4.1977,-55.71983 40.37,-74.19943 31.16318,-15.92056 34.69398,-23.23687 26.58741,-55.09273 -17.98291,-70.66623 -109.71073,-76.86711 -133.13444,-9 -5.65017,16.37065 -5.06078,21.59869 10.82284,96 7.51469,35.2 18.73729,87.97787 24.93911,117.28416 10.54957,49.85132 11.42019,53.32033 13.51367,53.84577 8.20449,2.05919 31.45278,2.66466 50.33759,1.31097 z m 82.92862,-23.44191 C 807.11213,616.05632 736.48544,302.09317 504.5366,297.17525 260.48978,292.00083 185.01723,629.01216 408.38978,726.50442 c 13.97343,6.09879 12.74904,6.05939 11.59448,0.37304 -2.37263,-11.68547 -22.33524,-106.66994 -25.95297,-123.48729 -18.18001,-84.51146 -19.37528,-91.07178 -19.40397,-106.5 -0.0793,-42.62214 22.56303,-78.54003 61.43853,-97.46114 7.43474,-3.61856 8.74621,-4.58239 7.27082,-5.34349 -4.00276,-2.06488 -12.3046,-4.08332 -21.17622,-5.1486 -21.51687,-2.58371 -30.19094,-21.47232 -15.95752,-34.74904 16.3476,-15.24879 66.06193,2.71666 84.31554,30.46942 1.54363,2.34693 3.75419,4.47417 4.91236,4.72719 1.15817,0.25303 4.87414,0.93211 8.25771,1.50908 50.06135,8.53647 90.34806,60.06931 90.34806,115.56894 0,3.02554 0.4227,4.42764 1.33484,4.42764 4.20124,0 21.37752,-7.11349 32.57244,-13.48975 19.50936,-11.1119 39.78215,14.33652 24.22285,30.40694 -10.27911,10.61677 -44.14233,23.29098 -68.63013,25.68665 -6.00934,0.5879 -7.52393,1.15323 -10.70206,3.99458 -2.03614,1.82036 -5.54181,4.52724 -7.79039,6.01528 -8.14633,5.39099 41.44779,9.16719 50.10736,3.81528 10.852,-6.7069 24.01989,18.99411 15.84453,30.92527 -10.32596,15.06974 -69.09605,15.46925 -100.69039,0.68448 -7.87449,-3.68492 -9.46691,-3.82682 -8.85108,-0.78873 0.25084,1.2375 0.70332,4.09114 1.00551,6.34142 2.72523,20.29374 34.77964,101.27995 49.53689,125.15609 l 2.0072,3.24751 6.45205,-2.42854 c 3.54863,-1.3357 12.32732,-5.41607 19.50821,-9.06749 z M 110.7866,596.72553 19.036597,535.56219 V 506.3147 477.06721 l 91.159353,-56.33852 c 50.13765,-30.98618 91.53765,-56.48852 92,-56.67185 0.46236,-0.18333 0.82793,16.91667 0.81239,38 l -0.0283,38.33333 -59.47175,33.36367 c -32.70946,18.35002 -59.455713,33.65002 -59.436121,34 0.01959,0.34998 26.778561,17.06133 59.464381,37.13633 l 59.42875,36.5 0.0356,38.25 c 0.0196,21.0375 -0.0769,38.24971 -0.21437,38.24935 -0.1375,-3.5e-4 -41.5375,-27.52415 -92,-61.16399 z m 684.48803,23.10117 0.26197,-38.23812 59.83251,-36.99555 59.83252,-36.99556 -11.33252,-6.31642 c -6.23288,-3.47403 -33.15751,-18.64599 -59.83251,-33.71546 l -48.5,-27.39904 -0.26189,-38.13819 c -0.14403,-20.976 0.023,-38.13819 0.37125,-38.13819 0.34822,0 41.97856,25.53687 92.51188,56.7486 l 91.87876,56.74859 -0.0281,29.00141 -0.0281,29.0014 -91.57055,61 c -50.36381,33.55 -91.98156,61.1518 -92.48389,61.33733 -0.54394,0.20089 -0.80739,-15.1281 -0.65138,-37.9008 z"
       id="path2" /></g></svg>
