<?xml version="1.0" encoding="UTF-8" standalone="no"?>
<!-- Created with Inkscape (http://www.inkscape.org/) -->

<svg
   width="257.17453mm"
   height="60.597691mm"
   viewBox="0 0 257.17453 60.597691"
   version="1.1"
   id="svg1"
   xml:space="preserve"
   sodipodi:docname="Duck_Logo_Borda.svg"
   inkscape:version="1.3.2 (091e20e, 2023-11-25, custom)"
   xmlns:inkscape="http://www.inkscape.org/namespaces/inkscape"
   xmlns:sodipodi="http://sodipodi.sourceforge.net/DTD/sodipodi-0.dtd"
   xmlns="http://www.w3.org/2000/svg"
   xmlns:svg="http://www.w3.org/2000/svg"><sodipodi:namedview
     id="namedview1"
     pagecolor="#505050"
     bordercolor="#eeeeee"
     borderopacity="1"
     inkscape:showpageshadow="0"
     inkscape:pageopacity="0"
     inkscape:pagecheckerboard="0"
     inkscape:deskcolor="#505050"
     inkscape:document-units="mm"
     inkscape:zoom="0.46235269"
     inkscape:cx="455.28014"
     inkscape:cy="68.129807"
     inkscape:window-width="1366"
     inkscape:window-height="715"
     inkscape:window-x="1358"
     inkscape:window-y="-8"
     inkscape:window-maximized="1"
     inkscape:current-layer="layer1" /><defs
     id="defs1" /><g
     inkscape:label="Camada 1"
     inkscape:groupmode="layer"
     id="layer1"
     transform="translate(6.9834591,-101.01705)"><path
       style="fill:#eec741;fill-opacity:1"
       d="m 75.301961,149.49863 c -2.752127,-0.33288 -4.971983,-1.00173 -7.805209,-2.35173 -14.957235,-7.12698 -18.463484,-26.5028 -7.01133,-38.74519 3.017409,-3.22562 7.959203,-5.98099 12.502373,-6.97088 2.545876,-0.5547 7.436268,-0.55103 9.918957,0.007 4.995101,1.12365 8.477792,3.03543 12.126808,6.65688 3.822936,3.79406 5.73026,7.23058 6.75501,12.17083 2.42841,11.70722 -3.793928,23.28143 -14.849099,27.62093 -3.45939,1.35791 -8.250258,2.02142 -11.63751,1.61172 z m 5.494966,-3.65688 c 0.255238,-0.162 0.07829,-0.76994 -0.739006,-2.53897 -0.591028,-1.27928 -1.612624,-3.89027 -2.270213,-5.80221 -2.141215,-6.22558 -1.611902,-8.29063 2.673628,-10.43081 2.166546,-1.08196 2.650695,-1.67092 2.625545,-3.19391 -0.04481,-2.7134 -1.525677,-5.33668 -3.643325,-6.45396 -1.692457,-0.89294 -4.402412,-0.831 -6.051384,0.13832 -0.691399,0.40643 -1.633821,1.29174 -2.112386,1.98438 -1.481538,2.14426 -1.400271,3.24508 1.108021,15.0089 1.179067,5.52979 2.209232,10.31524 2.289255,10.63433 0.08002,0.3191 0.402191,0.63031 0.715927,0.69158 1.052859,0.20561 5.06471,0.17767 5.403938,-0.0377 z m -9.992883,-1.32861 c 0,-0.12474 -0.916765,-4.50029 -2.037256,-9.72344 -2.333427,-10.87722 -2.510729,-12.79966 -1.432139,-15.52829 0.707946,-1.79097 2.770975,-4.05232 4.503086,-4.93598 1.372579,-0.70024 1.195597,-1.00134 -0.771328,-1.31227 -1.99515,-0.31539 -2.682418,-1.47583 -1.702569,-2.87476 0.327639,-0.46777 0.669741,-0.58804 1.67266,-0.58804 2.029675,0 3.69607,0.71901 5.236486,2.25943 1.027945,1.02794 1.692565,1.4529 2.648079,1.69317 2.724486,0.68509 5.195692,2.61386 6.417529,5.00886 0.676601,1.32625 1.340453,3.80912 1.340453,5.01344 0,0.84712 0.04209,0.88896 0.727604,0.72324 0.400182,-0.0967 1.301336,-0.47226 2.002563,-0.83449 1.830085,-0.94536 3.090666,-0.3886 3.090666,1.36504 0,0.75109 -0.167262,1.01379 -0.992187,1.55831 -1.222731,0.8071 -2.710969,1.34174 -4.884683,1.7548 -0.956675,0.18179 -1.925193,0.55315 -2.278917,0.87382 l -0.615161,0.55767 0.879745,0.18548 c 0.483859,0.10201 1.74394,0.11484 2.80018,0.0285 2.257263,-0.1845 2.974356,0.2111 2.974356,1.64085 0,1.57118 -0.664365,1.85371 -4.32765,1.84043 -2.65604,-0.01 -3.459245,-0.11051 -4.633713,-0.58193 l -1.420739,-0.57028 0.169858,1.06223 c 0.401067,2.50814 4.046191,11.23056 4.816871,11.52629 0.50304,0.19304 3.08743,-1.05526 4.978441,-2.40466 7.526487,-5.37079 10.612341,-14.85165 7.689104,-23.62373 -1.043149,-3.13029 -2.545911,-5.47101 -5.147714,-8.01815 -2.74774,-2.69 -4.449479,-3.74863 -7.955646,-4.94907 -13.301842,-4.55431 -27.263425,5.46864 -27.237135,19.55339 0.01478,7.91995 4.026509,14.57826 11.109712,18.43891 2.064409,1.12519 2.379444,1.23921 2.379444,0.86122 z m -64.7567734,-8.56957 -13.0307297,-5.31252 0.00544,-2.93357 0.00544,-2.93358 12.8929936,-5.21051 c 7.0911465,-2.86579 13.1013525,-5.28954 13.3560145,-5.38613 0.426167,-0.16162 0.463021,0.097 0.463021,3.24878 v 3.42437 l -8.71619,3.40044 c -4.7939044,1.87025 -8.6692702,3.47636 -8.611924,3.56915 0.057346,0.0928 3.9775246,1.64803 8.711507,3.4561 l 8.607242,3.28739 0.0047,3.37343 c 0.0035,2.53648 -0.07737,3.36795 -0.326047,3.35131 -0.181901,-0.0122 -6.194557,-2.41277 -13.3614582,-5.33466 z m 217.4795994,1.98335 0.074,-3.37343 8.30902,-3.20208 c 4.56995,-1.76115 8.48255,-3.31155 8.69465,-3.44534 0.27676,-0.17457 -2.088,-1.20568 -8.37516,-3.65185 l -8.7608,-3.40859 v -3.42699 c 0,-3.15404 0.0369,-3.41305 0.46302,-3.25205 0.25467,0.0962 6.26543,2.51996 13.35725,5.38612 l 12.89423,5.21119 0.004,2.9405 0.004,2.9405 -13.16302,5.33079 c -7.23966,2.93193 -13.25588,5.32941 -13.36936,5.32773 -0.11349,-0.002 -0.17302,-1.52111 -0.1323,-3.3765 z"
       id="path43"
       inkscape:label="color1" /><path
       style="fill:#000000"
       d="m 61.522714,160.44443 c -0.07819,-0.20375 0.156919,-0.7693 0.522462,-1.25677 0.843522,-1.12488 2.738083,-4.84632 2.738083,-5.37835 0,-0.28531 -0.2751,-0.40275 -0.943436,-0.40275 -1.098123,0 -1.966981,-0.3974 -1.966981,-0.89967 0,-0.63626 1.049802,-1.70224 1.849363,-1.87785 0.903612,-0.19847 1.854804,0.035 1.854804,0.45527 0,0.15836 0.297657,0.67818 0.661459,1.15515 0.363802,0.47697 0.661458,1.07326 0.661458,1.32509 0,0.61918 -2.793701,5.61438 -3.648022,6.52274 -0.742187,0.78914 -1.50311,0.9463 -1.72919,0.35714 z m 53.531376,-19.34099 v -18.91771 h 4.23334 4.23333 v 1.32292 c 0,0.7276 0.071,1.32291 0.15784,1.32291 0.0868,0 0.69437,-0.47228 1.35014,-1.04951 2.17202,-1.91189 5.85906,-2.7747 9.20765,-2.1547 3.36576,0.62317 6.61483,2.92488 8.30421,5.88286 l 0.75498,1.32193 0.7264,-1.23951 c 1.78634,-3.04817 4.52609,-5.1113 7.73589,-5.82541 3.61703,-0.80471 7.40894,-0.0867 10.00428,1.89438 l 1.18153,0.90188 v -1.18887 -1.18888 h 4.36562 4.36563 v 12.56771 12.56771 h -4.36563 -4.36562 v -1.50891 -1.5089 l -0.99219,0.95236 c -3.81316,3.66011 -11.03758,3.58194 -15.33967,-0.16598 -0.61508,-0.53584 -1.62191,-1.74023 -2.23742,-2.67641 l -1.1191,-1.70215 -0.76802,1.25447 c -1.46493,2.39276 -3.85398,4.46538 -6.03352,5.23437 -4.08061,1.43972 -9.13207,0.75009 -11.96396,-1.63335 l -0.83675,-0.70423 -0.0702,7.57936 -0.0702,7.57937 h -4.22928 -4.22928 z m 17.2539,-1.23782 c 0.61113,-0.33785 1.47318,-1.1299 1.91566,-1.76013 0.6992,-0.99588 0.81483,-1.41145 0.8834,-3.175 0.072,-1.85081 0.009,-2.14863 -0.7152,-3.38884 -2.41413,-4.13365 -9.10971,-3.44021 -10.60765,1.0986 -0.52021,1.57625 -0.23446,4.11238 0.60653,5.38321 1.69595,2.56274 5.15704,3.36806 7.91726,1.84216 z m 26.76079,0.5548 c 0.56094,-0.15576 1.54468,-0.76693 2.18609,-1.35817 2.9931,-2.75894 2.31765,-7.78724 -1.28738,-9.5837 -3.12342,-1.55647 -6.51309,-0.44198 -8.01934,2.63668 -0.61421,1.25541 -0.69735,1.69336 -0.57583,3.03349 0.36706,4.04798 3.75247,6.36683 7.69646,5.2717 z m -83.378732,18.13052 c -0.725898,-0.50844 -0.747378,-1.25222 -0.06792,-2.35162 0.54398,-0.88018 0.845133,-1.07515 3.112647,-2.01515 1.596785,-0.66196 2.048419,-0.57626 2.302711,0.43691 0.100507,0.40045 0.411862,1.01938 0.6919,1.37539 0.280038,0.35601 0.439068,0.7607 0.353399,0.89932 -0.325713,0.52701 -1.298076,0.68159 -2.132269,0.33898 -0.809561,-0.33251 -0.878386,-0.30742 -1.897452,0.69151 -1.167886,1.14482 -1.496402,1.23166 -2.36302,0.62466 z m 8.5602,-1.79292 c -0.891419,-0.89142 -0.888361,-2.00677 0.0084,-3.07254 0.87179,-1.03606 1.568977,-1.41172 2.230414,-1.20179 0.714759,0.22686 0.653435,0.56781 -0.29678,1.65004 -0.714198,0.81343 -0.767928,0.97735 -0.430857,1.31442 0.337071,0.33707 0.519999,0.31627 1.46687,-0.16679 1.337183,-0.68218 1.619062,-0.69176 1.451059,-0.0493 -0.234721,0.89757 -1.553179,1.91322 -2.679817,2.06433 -0.901631,0.12093 -1.173776,0.0372 -1.749314,-0.53836 z m -14.615385,-0.038 c -0.798314,-0.55916 -0.95699,-1.54535 -0.497561,-3.09242 0.472495,-1.59106 0.822422,-2.07313 1.50486,-2.07313 0.808835,0 1.152871,1.09276 0.650119,2.06498 -0.674008,1.30338 0.02119,1.34401 1.127432,0.0659 0.690773,-0.7981 1.09038,-1.06222 1.415454,-0.93556 1.173487,0.45727 0.685747,1.835 -1.251903,3.53628 -1.033563,0.90748 -2.057252,1.05815 -2.948401,0.43397 z m 20.688269,-2.08458 c -0.310234,-0.22685 -0.426719,-0.52465 -0.317025,-0.81051 0.203606,-0.53059 -0.246174,-1.47335 -1.384579,-2.90215 -0.923368,-1.15891 -1.038359,-1.88085 -0.356497,-2.23815 0.681287,-0.357 1.411877,0.0249 2.393718,1.25113 0.4798,0.59925 0.988369,1.08954 1.130152,1.08954 0.141783,0 0.723521,-0.3082 1.29275,-0.6849 0.690437,-0.45691 1.217006,-0.62713 1.581827,-0.51134 0.622106,0.19745 0.674254,0.46384 0.247061,1.26206 -0.25203,0.47092 -0.203991,0.63777 0.30146,1.04706 0.341789,0.27676 0.809399,0.42082 1.08356,0.3338 0.599515,-0.19028 1.560618,0.2979 1.560618,0.79269 0,1.12346 -1.500742,1.48741 -3.387848,0.8216 -1.039001,-0.36659 -1.086532,-0.35817 -1.494573,0.26458 -0.483044,0.73722 -1.833349,0.8822 -2.650624,0.28459 z m 106.222628,-7.0497 c -4.01684,-0.49303 -7.90741,-2.58359 -9.93572,-5.33887 -1.66965,-2.26805 -2.29508,-4.09608 -2.4382,-7.12645 -0.19797,-4.19172 0.91896,-7.04866 3.81476,-9.75754 3.75373,-3.51143 9.32596,-4.95614 14.77479,-3.83065 2.34974,0.48535 3.47878,0.93626 5.36405,2.14225 4.01284,2.56699 6.0053,6.23111 5.95252,10.94666 -0.058,5.18024 -2.55517,9.0616 -7.39358,11.4918 -2.58904,1.3004 -6.68986,1.89611 -10.13862,1.4728 z m 5.76761,-8.11719 c 3.462,-2.14038 3.55004,-7.61221 0.16027,-9.96039 -1.42228,-0.98525 -3.80817,-1.24758 -5.49336,-0.604 -5.18662,1.98079 -4.97299,9.5789 0.3176,11.29567 1.32423,0.42971 3.69729,0.0837 5.01549,-0.73128 z M 37.452747,129.92479 c -4.012486,-9.56799 -7.832645,-18.67877 -8.489242,-20.24617 l -1.193812,-2.84982 5.200237,0.0717 5.200237,0.0717 5.034502,13.14011 c 2.768976,7.22706 5.096665,13.10169 5.172643,13.05474 0.07598,-0.047 2.399413,-5.98931 5.16319,-13.20524 l 5.025049,-13.11986 5.093229,-10e-4 c 2.801276,-5.6e-4 5.093229,0.087 5.093229,0.19447 0,0.10753 -3.780234,9.21552 -8.400521,20.23999 l -8.400521,20.04448 -3.601395,6.4e-4 -3.601396,6.5e-4 z m 67.547183,-3.77031 v -21.16667 h 4.36562 4.36563 v 21.16667 21.16667 h -4.36563 -4.36562 z m 68.46297,4.69635 -0.0682,-16.20573 -4.82864,-0.0721 -4.82865,-0.0721 v -3.96278 -3.96278 h 14.2875 14.2875 v 3.96875 3.96875 h -4.89479 -4.89479 v 16.27188 16.27187 h -4.49589 -4.49588 z"
       id="path42"
       inkscape:label="color2" /><path
       style="fill:#f9f9f9"
       d="m 61.078416,161.21096 c -0.515052,-0.6206 -0.390845,-1.58582 0.328549,-2.55317 0.36223,-0.48708 1.101735,-1.68927 1.643344,-2.67154 l 0.984743,-1.78594 h -0.78084 c -1.045714,0 -2.17512,-0.91669 -2.17512,-1.76545 0,-0.80967 1.467401,-2.36125 2.471488,-2.61326 0.827461,-0.20768 1.898052,0.0167 2.286696,0.47927 1.616068,1.92345 1.902981,2.47107 1.779681,3.39677 -0.141973,1.0659 -2.848534,5.99231 -3.932039,7.15699 -0.785102,0.84392 -2.057476,1.01786 -2.606502,0.35633 z m 2.203335,-0.8769 c 0.7649,-0.79839 3.530338,-5.61425 3.783539,-6.58884 0.09847,-0.37901 -0.04861,-0.8483 -0.414611,-1.32291 -0.311969,-0.40455 -0.780729,-1.0221 -1.04169,-1.37235 -0.863344,-1.15872 -3.174691,-0.57534 -3.753644,0.94742 -0.35096,0.92309 0.0975,1.40813 1.306665,1.41324 1.792567,0.008 1.827521,0.23078 0.440562,2.81346 -0.691696,1.28802 -1.482915,2.58766 -1.758263,2.88808 -0.497242,0.54252 -0.662097,1.45308 -0.324244,1.79093 0.373448,0.37345 1.076205,0.14646 1.761686,-0.56903 z m 50.361229,1.0982 c -0.097,-0.097 -0.17639,-3.01405 -0.17639,-6.48229 v -6.30591 h -4.89479 -4.89479 V 126.15448 103.6649 h 5.68854 5.68854 v 8.46082 8.46083 l 4.96094,0.072 c 4.87079,0.0707 4.96243,0.0825 5.04308,0.64893 0.0817,0.57377 0.0868,0.57425 0.92604,0.0867 1.74576,-1.01428 3.80098,-1.39656 6.83601,-1.27151 2.70969,0.11164 2.97284,0.17478 5.07935,1.21859 1.68532,0.83511 2.60677,1.5126 3.81723,2.80658 l 1.59562,1.70573 1.07821,-1.27869 c 1.41538,-1.67856 3.89943,-3.31306 6.03975,-3.97414 2.99161,-0.92401 7.61571,-0.64312 10.03722,0.60972 0.7926,0.41008 0.83746,0.40585 0.96741,-0.0911 0.12972,-0.49603 0.38556,-0.52109 5.32042,-0.52109 h 5.18414 v -2.24896 -2.24896 h -4.7625 -4.7625 v -5.55625 -5.55625 h 15.61042 15.61042 v 5.55625 5.55625 h -4.7625 -4.7625 v 5.8662 5.86619 l 0.82039,-1.23857 c 1.8757,-2.83179 5.99286,-5.53751 9.68288,-6.36342 2.46446,-0.55161 6.80381,-0.55276 9.05899,-0.002 4.51574,1.102 8.64376,4.21042 10.40932,7.83827 1.0981,2.25637 1.51533,4.05286 1.50992,6.50145 -0.009,4.07346 -1.38656,7.2468 -4.38047,10.09072 -3.49052,3.31565 -7.6364,4.71121 -13.19671,4.4422 -1.90594,-0.0922 -3.56901,-0.34197 -4.7762,-0.7173 -3.34998,-1.04155 -6.60405,-3.36807 -8.30691,-5.9391 l -0.68892,-1.04014 -0.0735,3.44496 -0.0735,3.44496 -8.37014,0.17487 c -13.60725,0.28429 -14.10468,0.27179 -14.10468,-0.35429 0,-0.65085 -0.0273,-0.65118 -1.10935,-0.0134 -2.0556,1.21156 -5.99551,1.66907 -8.99794,1.04486 -2.36724,-0.49215 -4.65029,-1.78371 -6.55697,-3.7094 l -1.74245,-1.75982 -1.34273,1.49129 c -1.67068,1.85554 -4.0675,3.29008 -6.48815,3.88329 -2.64162,0.64736 -6.37828,0.43733 -8.62126,-0.4846 l -1.65365,-0.6797 v 6.86064 6.86063 h -5.64444 c -3.10445,0 -5.72382,-0.0794 -5.82084,-0.17639 z m 10.14236,-8.73328 v -7.58674 l 0.59532,0.55549 c 0.81692,0.76228 3.01992,1.8345 4.44295,2.16243 1.73454,0.39972 4.6831,0.34245 6.48167,-0.1259 2.84916,-0.74191 5.29485,-2.55371 7.00458,-5.18905 l 0.97228,-1.49865 1.12784,1.71544 c 1.3541,2.05959 3.50058,3.81226 5.68416,4.64132 1.3284,0.50436 2.10594,0.60799 4.51516,0.60176 3.44836,-0.009 5.16894,-0.55841 7.11653,-2.27274 l 1.21785,-1.072 v 1.3454 1.34541 h 4.36562 4.36563 v -12.7064 -12.7064 l -4.43177,0.0725 -4.43177,0.0725 -0.0822,0.99384 -0.0822,0.99384 -1.17165,-0.80611 c -3.24021,-2.22933 -8.43358,-2.56625 -12.22298,-0.79298 -1.94124,0.90842 -4.45714,3.26826 -5.34974,5.0179 l -0.5863,1.14925 -0.65425,-1.1612 c -0.79524,-1.41147 -2.76891,-3.49392 -4.1564,-4.38549 -4.02313,-2.58516 -10.36747,-2.26252 -13.74018,0.69875 l -0.98012,0.86056 v -1.35033 -1.35032 h -4.49791 -4.49792 v 19.18229 19.18229 h 4.49792 4.49791 z m 3.024,-12.75781 c -3.00729,-1.36588 -4.1613,-5.57678 -2.31055,-8.43106 2.2722,-3.50426 7.7024,-3.42835 9.79177,0.1369 1.32707,2.26448 0.86005,5.63566 -1.02422,7.39328 -1.51519,1.41334 -4.43254,1.82037 -6.457,0.90088 z m 5.1155,-1.51619 c 2.54767,-1.85615 2.38907,-6.19566 -0.27698,-7.57887 -2.03942,-1.05809 -5.05493,-0.37645 -6.09057,1.37674 -1.34273,2.27307 -0.45928,5.52093 1.77749,6.53467 1.14894,0.52072 3.66955,0.3381 4.59006,-0.33254 z m 22.67352,1.5336 c -2.15121,-1.00518 -3.16097,-2.95355 -2.98258,-5.75504 0.20025,-3.14484 2.45859,-5.23786 5.6516,-5.23786 3.16375,0 5.35278,2.04547 5.60932,5.24144 0.12034,1.49915 0.0456,1.9076 -0.58504,3.19656 -1.02213,2.08914 -2.27611,2.87544 -4.74807,2.97727 -1.4087,0.058 -2.14228,-0.0472 -2.94523,-0.42237 z m 4.85221,-1.34138 c 1.29129,-0.65876 2.17019,-2.22193 2.17019,-3.8598 0,-2.68694 -1.6982,-4.40738 -4.35039,-4.40738 -1.75927,0 -2.90289,0.57194 -3.80754,1.90418 -0.53056,0.78135 -0.6052,1.16594 -0.52189,2.68922 0.11114,2.0322 0.64128,2.97653 2.08405,3.71221 1.19526,0.60948 3.18952,0.59216 4.42558,-0.0384 z m 43.84207,8.83678 c 3.82476,-0.7995 7.78325,-3.59418 9.46337,-6.6811 2.01177,-3.69629 2.01274,-8.86998 0.002,-12.56373 -0.96416,-1.77148 -3.89266,-4.46573 -5.93361,-5.45897 -2.49678,-1.21507 -4.47778,-1.64099 -7.66599,-1.64819 -4.69079,-0.0106 -8.14144,1.24167 -11.23964,4.07894 -4.07359,3.7305 -5.21855,10.07522 -2.73026,15.12964 1.65848,3.36885 5.53079,6.26178 9.5492,7.13401 2.2286,0.48374 6.26415,0.48817 8.55458,0.009 z m -6.95756,-7.83967 c -2.8951,-1.43304 -3.84779,-5.37608 -2.01512,-8.34035 2.42066,-3.91533 8.73781,-3.22106 10.16972,1.11768 0.17407,0.52741 0.26811,1.71861 0.20899,2.64711 -0.13205,2.07381 -1.08967,3.60069 -2.83671,4.52302 -1.55624,0.8216 -3.92765,0.84415 -5.52688,0.0525 z m 4.81006,-1.12677 c 0.48302,-0.20182 1.1638,-0.76736 1.51285,-1.25677 0.87712,-1.2298 0.92113,-4.30316 0.0778,-5.43449 -1.28554,-1.72461 -3.82286,-2.25598 -5.85048,-1.22523 -2.86144,1.45463 -2.87292,6.46153 -0.0178,7.75739 1.33753,0.60706 3.05277,0.67086 4.27758,0.1591 z m -87.41396,-12.33306 v -21.16667 h -4.36563 -4.36562 v 21.16667 21.16667 h 4.36562 4.36563 z m 69.05625,4.7625 V 114.7774 h 4.7625 4.7625 v -4.23334 -4.23333 h -14.2875 -14.2875 v 4.23333 4.23334 h 4.7625 4.7625 v 16.13958 16.13958 h 4.7625 4.7625 z M 75.89576,159.56971 c -0.882155,-0.32248 -1.5875,-1.24155 -1.5875,-2.06853 0,-0.97435 1.178009,-2.74711 2.138128,-3.21762 1.480895,-0.72572 3.25075,-1.40616 3.657467,-1.40616 0.668805,0 1.612738,0.76592 1.612738,1.30861 0,0.26666 0.234164,0.76593 0.520364,1.10947 l 0.520365,0.62463 0.0088,-0.62544 c 0.02501,-1.77733 2.402468,-3.99366 3.884878,-3.6216 0.965004,0.2422 1.338456,1.27571 0.772878,2.13889 -0.441526,0.67386 -0.439534,0.68435 0.07737,0.40772 0.291807,-0.15617 0.776512,-0.28395 1.07712,-0.28395 0.885182,0 0.667869,-1.05353 -0.511773,-2.48105 -1.406236,-1.70175 -1.429375,-2.85623 -0.07157,-3.57116 0.899615,-0.47368 1.831295,-0.0931 2.936054,1.19936 l 1.002386,1.17269 0.75526,-0.59409 c 0.857816,-0.67475 2.246982,-0.78098 2.919056,-0.22321 0.337518,0.28012 0.407796,0.6153 0.287171,1.36965 -0.158226,0.98949 -0.152478,0.99732 0.618639,0.8431 0.609018,-0.1218 0.926066,-0.008 1.457346,0.52333 0.813086,0.81308 0.865321,1.57506 0.15656,2.28382 -0.744282,0.74428 -1.77927,0.9315 -3.139015,0.56783 -1.079507,-0.28873 -1.230143,-0.26748 -1.782446,0.25138 -0.478499,0.44953 -0.839836,0.54288 -1.746882,0.45131 -0.628977,-0.0635 -1.322189,-0.19112 -1.54047,-0.28361 -0.263373,-0.1116 -0.574878,0.11058 -0.926042,0.66048 -0.765344,1.1985 -1.760321,1.83867 -3.09081,1.98863 -0.981949,0.11068 -1.296806,0.0222 -1.986648,-0.55826 -0.948492,-0.7981 -1.14025,-0.84509 -1.14025,-0.27941 0,0.66863 -1.751978,1.26379 -2.723389,0.92515 -0.710351,-0.24763 -0.898804,-0.20357 -1.492216,0.34883 -1.149509,1.07005 -1.841071,1.33987 -2.663562,1.03921 z m 2.300077,-1.56897 c 0.815267,-0.86443 0.968476,-0.92936 1.509639,-0.63974 1.343965,0.71927 3.086511,-0.20934 2.331478,-1.24246 -0.186115,-0.25466 -0.52996,-0.90688 -0.764101,-1.44939 -0.505629,-1.17154 -1.136994,-1.43886 -2.132786,-0.903 -0.401921,0.21629 -1.274394,0.64059 -1.938829,0.9429 -0.835423,0.3801 -1.386316,0.8668 -1.785938,1.57783 -0.69305,1.23312 -0.713799,1.55803 -0.139992,2.19208 0.728051,0.80449 1.890263,0.61418 2.920529,-0.47822 z m 9.274245,-1.04053 c 0.586257,-0.38413 1.651697,-1.86381 1.653856,-2.29688 0.0018,-0.35265 -0.788221,-0.2115 -1.851095,0.33073 -1.729952,0.88256 -2.067384,0.61091 -0.926041,-0.74549 0.933035,-1.10885 0.886391,-1.90034 -0.111992,-1.90034 -0.999278,0 -2.280804,1.0814 -2.666511,2.2501 -0.756279,2.29155 1.720727,3.79097 3.901783,2.36188 z m 5.49267,-2.34034 c 0.618772,-0.61877 0.678032,-0.62695 1.892632,-0.26141 1.754356,0.52798 3.000793,0.12794 3.000793,-0.96311 0,-0.88756 -0.616717,-1.32274 -1.606408,-1.13355 -0.909093,0.17378 -1.535466,-0.54052 -1.093943,-1.24751 0.835981,-1.33862 -0.992607,-1.81363 -2.405393,-0.62485 l -0.816508,0.68705 -1.263368,-1.36693 c -1.010915,-1.09379 -1.405196,-1.35003 -1.973126,-1.28236 -0.390366,0.0465 -0.834386,0.28368 -0.986712,0.52705 -0.33405,0.53369 -0.04204,1.17463 1.284418,2.81924 0.655789,0.81307 0.92354,1.41003 0.92354,2.05904 0,0.70057 0.139017,0.96988 0.595312,1.15329 1.021976,0.41078 1.786248,0.29657 2.448763,-0.36595 z m -23.416993,2.9463 c -0.991313,-0.49533 -1.635655,-1.95222 -1.430112,-3.23356 0.329661,-2.0551 1.386365,-3.57188 2.488446,-3.57188 0.730872,0 1.5875,0.70468 1.5875,1.30591 0,0.21833 0.16412,0.27064 0.463021,0.14759 1.10027,-0.45296 1.38738,-0.4209 2.035592,0.22731 0.988386,0.98839 0.861091,1.76069 -0.548645,3.32866 -1.838662,2.04503 -3.106098,2.54033 -4.595802,1.79597 z m 2.20737,-0.5533 c 1.319073,-0.55115 2.862135,-2.48697 2.765721,-3.46969 -0.06092,-0.62093 -0.223826,-0.8186 -0.733929,-0.89053 -0.496301,-0.07 -0.862164,0.15356 -1.505504,0.91985 -0.862859,1.02776 -1.425034,1.11411 -0.903011,0.1387 0.515616,-0.96344 0.348628,-1.87495 -0.406519,-2.21902 -0.61017,-0.27801 -0.750998,-0.24335 -1.184035,0.29143 -0.942931,1.16447 -1.344083,3.77878 -0.703113,4.5822 0.341761,0.42838 1.232543,0.98733 1.595998,1.00146 0.113814,0.004 0.597291,-0.15506 1.074392,-0.3544 z M 34.810144,127.41125 c -4.895293,-11.67805 -8.977326,-21.44117 -9.071184,-21.69583 -0.159708,-0.43333 0.262046,-0.46302 6.577013,-0.46302 h 6.747663 l 1.046848,2.71197 c 0.575767,1.49159 2.630526,6.84941 4.566131,11.90625 1.935606,5.05685 3.590267,9.19188 3.677026,9.18895 0.08676,-0.003 2.168355,-5.27144 4.62577,-11.70781 2.457416,-6.43637 4.557043,-11.80187 4.66584,-11.92333 0.108797,-0.12146 3.163757,-0.12146 6.7888,0 l 6.590988,0.22084 -5.585296,13.22917 c -3.071914,7.27604 -5.856256,13.82448 -6.187427,14.55208 -0.331172,0.72761 -0.780592,1.79917 -0.998711,2.38125 -0.218119,0.58208 -1.487319,3.70591 -2.820443,6.94184 l -2.423862,5.88351 -4.649311,0.003 -4.649311,0.003 z m 25.786544,-0.30046 c 4.630947,-11.04293 8.419905,-20.18098 8.419905,-20.30677 0,-0.12579 -2.36391,-0.22871 -5.253133,-0.22871 h -5.253134 l -4.979512,12.97752 c -2.738732,7.13763 -5.054153,13.02364 -5.145381,13.08002 -0.09123,0.0564 -2.421927,-5.78285 -5.179334,-12.97607 l -5.013466,-13.07858 -5.243923,-10e-4 c -4.924665,-0.001 -5.238776,0.0279 -5.159375,0.47974 0.0465,0.26465 3.835017,9.43282 8.418923,20.37372 l 8.334375,19.89252 3.817075,-0.0669 3.817075,-0.0669 z"
       id="path40"
       inkscape:label="color3" /></g></svg>
